<svg xmlns="http://www.w3.org/2000/svg" width="113" height="36" viewBox="0 0 113 36">
    <defs>
        <radialGradient id="a" cx="26.563%" cy="107.702%" r="99.401%" fx="26.563%" fy="107.702%" gradientTransform="matrix(0 -.99705 1 0 -.811 1.342)">
            <stop offset="0%" stop-color="#FD5"/>
            <stop offset="10%" stop-color="#FD5"/>
            <stop offset="50%" stop-color="#FF543E"/>
            <stop offset="100%" stop-color="#C837AB"/>
        </radialGradient>
        <radialGradient id="b" cx="-16.751%" cy="7.204%" r="44.427%" fx="-16.751%" fy="7.204%" gradientTransform="scale(1 .99705) rotate(78.713 -.168 .072)">
            <stop offset="0%" stop-color="#3771C8"/>
            <stop offset="12.8%" stop-color="#3771C8"/>
            <stop offset="100%" stop-color="#60F" stop-opacity="0"/>
        </radialGradient>
    </defs>
    <g fill="none" fill-rule="evenodd">
        <rect width="113" height="36" fill="#FFF" rx="2.7"/>
        <path fill="#040404" d="M74.09 24.237c-.667.656-1.285 1.391-1.656 2.257-.133.309-.204.658-.108.988a.75.75 0 0 0 .527.54c.322.085.69.085.98-.096.262-.173.434-.45.537-.741.198-.558.236-1.154.264-1.74.009-.574.025-1.147.029-1.72-.21.149-.383.34-.573.512m12.39-8.031c-.378.06-.667.352-.837.677-.308.578-.4 1.239-.458 1.882-.048.723-.067 1.462.103 2.172.086.346.23.7.514.931.185.148.444.231.675.147.301-.101.512-.36.681-.616.386-.637.53-1.387.601-2.118.055-.666.07-1.348-.094-2-.083-.321-.223-.644-.48-.866a.838.838 0 0 0-.705-.21m-13.298-.055c-.433.118-.733.492-.927.875-.283.597-.398 1.258-.447 1.911-.032.734-.04 1.489.187 2.196.115.334.31.677.646.829.21.1.465.077.662-.044.166-.108.31-.25.426-.41.269-.366.427-.798.536-1.234.16-.648.213-1.318.208-1.984-.005-.455-.046-.916-.19-1.35-.093-.267-.236-.532-.474-.696a.728.728 0 0 0-.627-.093m-7.664-.024c-.36.072-.629.36-.797.67-.225.42-.33.892-.399 1.36a9.764 9.764 0 0 0-.077 1.84c.034.472.098.957.317 1.385.123.232.31.447.564.537a.628.628 0 0 0 .522-.027c.326-.167.548-.477.712-.794.29-.587.413-1.238.478-1.884.052-.671.071-1.358-.091-2.017-.086-.313-.218-.63-.463-.853a.857.857 0 0 0-.766-.217m-6.715-5.173c.151-.127.364-.109.547-.086.328.054.654.135.96.267a.818.818 0 0 1 .25.17c-.03.713-.058 1.426-.097 2.138.722.033 1.442.073 2.163.115.125.005.293.041.314.19.029.22-.005.455-.108.653-.062.104-.15.231-.287.222-.7.012-1.4.034-2.1.044-.038 1.001-.064 2.003-.1 3.004-.018.914-.102 1.83-.004 2.742.043.354.09.72.262 1.04.07.138.2.257.359.277a.779.779 0 0 0 .568-.2c.247-.21.417-.493.563-.778.17-.328.293-.678.405-1.03.041-.155.008-.317.024-.475.01-.837.142-1.677.43-2.465.217-.572.525-1.135 1.01-1.524.53-.44 1.305-.586 1.947-.317.415.16.751.486.959.874.027-.184-.016-.385.067-.556.117-.187.364-.196.561-.18.264.031.53.096.762.227.142.08.284.21.289.384-.046 1.528-.11 3.057-.06 4.586.014.331.06.662.132.987.06.233.137.487.333.645.184.141.448.095.622-.04.28-.219.441-.545.584-.861.037-.09.09-.184.07-.285-.105-.916-.124-1.849.025-2.762.105-.613.29-1.22.608-1.76.322-.55.79-1.028 1.373-1.302.112-.046.225-.105.348-.115.575-.005 1.169.185 1.577.599.106.114.196.242.277.374.037-.171-.001-.354.06-.52.093-.193.342-.204.528-.18.312.051.631.12.91.276.171.1.172.32.163.494-.016 1.722-.04 3.444-.053 5.166.392-.55.751-1.127 1.058-1.73.378-.732.698-1.501.858-2.31-.214-.194-.412-.43-.475-.719-.056-.235-.003-.477.062-.704.104-.343.36-.658.715-.758.27-.075.58-.082.832.053.192.102.301.31.332.519.036.21.004.425-.036.633.462-.073.925-.148 1.38-.262.312-.071.646-.127.96-.029a.665.665 0 0 1 .438.488c.056.236.075.491-.016.721-.122.305-.15.635-.22.953-.147.845-.337 1.709-.195 2.567.052.383.131.767.282 1.125.093.189.212.397.427.464.213.056.43-.052.593-.18a1.8 1.8 0 0 0 .53-.929 7.72 7.72 0 0 1-.08-2.745c.105-.682.301-1.356.633-1.965.26-.46.624-.884 1.11-1.116.538-.264 1.205-.264 1.732.032.325.168.574.45.76.76.028-.186-.02-.392.08-.56.15-.184.42-.173.632-.143.312.055.655.13.873.378.142.156.073.376.074.564-.025 1.004-.068 2.007-.065 3.011.006.767-.024 1.548.182 2.295.06.191.137.394.305.518.187.135.454.106.634-.03.244-.184.41-.45.551-.716.113-.239.25-.473.31-.73.004-1.69.014-3.378.016-5.067-.011-.143.041-.31.184-.37.103-.064.226-.017.338-.004.3.055.616.065.893.205.103.051.213.142.204.269-.002.834.001 1.669-.001 2.503-.002.097 0 .194.01.29.247-.761.506-1.52.802-2.264.116-.275.237-.55.388-.808.114-.207.38-.242.594-.228.456.034.938.23 1.18.636.086.147.125.32.125.49-.009.868.04 1.736.102 2.6.02.27.025.54.067.808a.114.114 0 0 0 .051-.082c.09-.641.251-1.27.433-1.89.205-.687.429-1.37.715-2.029.073-.163.145-.35.315-.44.242-.132.537-.09.791-.015.288.099.587.2.82.403.17.143.307.348.314.576-.072 1.343-.137 2.693-.036 4.037.028.37.073.741.167 1.1.055.204.125.409.253.579.121.162.353.247.547.17.172-.067.287-.225.373-.38.202-.374.26-.8.374-1.202.029-.123.084-.257.215-.3.093-.058.19.015.264.07.096.088.067.227.069.343-.026.649-.13 1.328-.512 1.87-.304.45-.853.74-1.401.677a1.59 1.59 0 0 1-1.24-.732c-.345-.518-.483-1.138-.574-1.744-.16-1.207-.118-2.427-.088-3.64a.303.303 0 0 0-.106.134c-.342.677-.572 1.403-.753 2.137a13.92 13.92 0 0 0-.42 2.909c.004.126-.095.222-.212.25-.271.11-.591.133-.858.003-.274-.127-.472-.373-.595-.642-.131-.277-.182-.582-.225-.883-.162-1.247-.217-2.505-.28-3.76.01-.09-.094-.032-.141-.024-.615 1.064-.926 2.273-1.084 3.482-.098.703-.13 1.414-.14 2.123a.365.365 0 0 1-.184.314c-.211.12-.465.113-.699.095-.278-.028-.574-.052-.81-.216a.375.375 0 0 1-.172-.296c-.017-.231-.021-.463-.041-.693-.128.185-.233.386-.386.554-.243.286-.558.528-.929.617a1.564 1.564 0 0 1-1.474-.452c-.298-.319-.458-.74-.535-1.164-.263.571-.691 1.082-1.258 1.374a2.368 2.368 0 0 1-.892.263c-.341.04-.698 0-1.006-.157-.454-.23-.792-.642-.997-1.099-.24.537-.654 1.054-1.247 1.212-.586.16-1.217-.077-1.636-.493-.535-.522-.816-1.255-.9-1.985a5.297 5.297 0 0 1-.005-1.065c.053-.793.14-1.589.347-2.358a.96.96 0 0 0 .001-.127c-.427-.02-.854-.006-1.281.006-.211.722-.525 1.41-.877 2.074a18.005 18.005 0 0 1-2.187 3.175c.01.944.04 1.888-.007 2.83-.046.749-.16 1.506-.472 2.194-.238.512-.613.977-1.12 1.246a2.944 2.944 0 0 1-1.235.345c-.534-.038-1.09-.17-1.507-.522a1.679 1.679 0 0 1-.571-.956c-.056-.322-.073-.66.033-.975.189-.59.57-1.097.978-1.555.413-.467.891-.87 1.342-1.3.362-.337.726-.672 1.089-1.007.006-.261-.035-.523-.043-.784-.167.217-.317.45-.527.63a2.47 2.47 0 0 1-2.002.672c-.501-.088-.912-.435-1.214-.827a3.206 3.206 0 0 1-.304-.457c-.266.525-.65 1.06-1.24 1.244-.587.165-1.253-.074-1.639-.536a2.194 2.194 0 0 1-.47-1.088c-.248.53-.626 1.009-1.131 1.314-.324.2-.698.316-1.077.346-.412.05-.84-.05-1.183-.285-.616-.43-.918-1.159-1.1-1.86-.095.312-.251.602-.411.886-.163.254-.335.505-.556.713-.258.25-.581.453-.945.5a1.541 1.541 0 0 1-1.177-.345c-.26-.22-.454-.51-.594-.818-.263-.564-.364-1.186-.415-1.8-.326.714-.71 1.42-1.28 1.974a3.378 3.378 0 0 1-1.597.928c-.48.123-.981.11-1.47.066-.424-.042-.854-.124-1.228-.334-.18-.107-.364-.254-.418-.465-.035-.232.098-.442.226-.623.126-.167.266-.344.469-.418.189-.061.352.092.5.186.229.2.487.381.79.446.295.077.647-.02.822-.278.16-.242.204-.54.22-.822-.003-.535-.347-.99-.71-1.354-.34-.324-.696-.632-1.047-.944-.5.848-1.036 1.673-1.542 2.517-.302.54-.667 1.054-1.13 1.471-.335.297-.736.552-1.188.613-.303.046-.61-.105-.796-.34-.243-.307-.346-.695-.405-1.074-.092-.68-.058-1.367-.047-2.05.011-.87.057-1.738.086-2.606.005-.187.028-.373.009-.559-.06.013-.128.015-.166.07-.835.935-1.357 2.1-1.76 3.273a18.658 18.658 0 0 0-.75 3.156.603.603 0 0 1-.483.112c-.204-.03-.413-.002-.615-.045-.18-.047-.307-.204-.378-.369-.147-.34-.165-.716-.161-1.081.017-2.056.03-4.11.045-6.166-.004-.099.023-.224.13-.26.214-.067.44-.01.653.037.239.062.499.122.678.304.091.086.052.22.06.332-.006 1.14-.022 2.28-.016 3.42.375-1.01.746-2.035 1.331-2.949.131-.188.256-.382.417-.546.278-.323.661-.606 1.104-.616.333-.013.638.141.93.281.268.137.53.333.642.623.072.17.043.359.04.538-.03.981-.059 1.962-.093 2.943-.006.4-.038.8-.014 1.2.01.19.032.384.1.564.04.1.1.216.22.235.112.012.205-.068.286-.135.182-.165.33-.363.475-.559.413-.571.766-1.182 1.12-1.79.207-.377.424-.75.615-1.134-.067-.113-.17-.202-.23-.32a1.56 1.56 0 0 1-.171-1.243c.108-.404.363-.764.697-1.016a2.09 2.09 0 0 1 .797-.33c.27-.07.57-.03.81.114.165.1.25.294.257.482.015.354-.117.695-.284 1a4.917 4.917 0 0 1-.591.842c.706.512 1.439 1.001 2.048 1.63.32.336.585.749.639 1.217.037.242.004.485-.032.725.664-.577 1.18-1.366 1.313-2.244.018-1.34.013-2.68.028-4.02-.616-.012-1.232-.013-1.847-.03-.122-.071-.146-.226-.153-.355.002-.308.087-.63.299-.862.032-.049.094-.033.145-.037l1.646.022c.026-.62.04-1.241.064-1.862.005-.178-.001-.378.122-.522m-17.341-.127c.184-.05.379-.02.561.022.274.07.558.143.783.322.115.09.218.22.207.374v7.84c-.007.857.047 1.722-.112 2.57-.12.688-.387 1.374-.882 1.88-.164.184-.349.35-.566.467-.183.097-.383.185-.595.168-.048-.051-.09-.113-.08-.188.015-.203.091-.396.158-.587.2-.652.257-1.337.28-2.015.018-3.184.024-6.369.04-9.553a1.48 1.48 0 0 0-.019-.246c-.122.005-.2.106-.282.182a4.423 4.423 0 0 0-.932 1.302c-.297.62-.448 1.302-.51 1.984-.053.444-.017.895.089 1.329.09.334.224.663.443.935.093.109.125.278.046.403-.116.12-.298.056-.435.013-.46-.163-.857-.48-1.16-.857-.364-.457-.517-1.047-.528-1.622.034-.51.173-1.006.358-1.48a5.943 5.943 0 0 1 1.18-1.907 6.772 6.772 0 0 1 1.096-.927c.269-.17.55-.329.86-.409"/>
        <path fill="url(#a)" fill-rule="nonzero" d="M19.81 7.2c-4.494 0-5.81.005-6.065.026-.922.077-1.496.223-2.122.535-.481.24-.862.518-1.237.908-.683.712-1.097 1.587-1.247 2.628-.073.505-.094.608-.098 3.188-.002.86 0 1.992 0 3.51 0 4.506.005 5.824.026 6.08.075.9.216 1.467.514 2.086a4.54 4.54 0 0 0 2.94 2.41c.443.114.934.177 1.563.207.267.012 2.984.02 5.704.02 2.72 0 5.439-.003 5.699-.016.728-.035 1.152-.092 1.62-.213a4.511 4.511 0 0 0 2.94-2.414c.292-.605.44-1.193.507-2.047.014-.186.02-3.153.02-6.116 0-2.963-.006-5.925-.02-6.111-.069-.867-.217-1.45-.519-2.067a4.28 4.28 0 0 0-.921-1.267C28.4 7.865 27.53 7.45 26.492 7.3c-.503-.073-.603-.095-3.177-.099h-3.504z"/>
        <path fill="url(#b)" fill-rule="nonzero" d="M19.81 7.2c-4.494 0-5.81.005-6.065.026-.922.077-1.496.223-2.122.535-.481.24-.862.518-1.237.908-.683.712-1.097 1.587-1.247 2.628-.073.505-.094.608-.098 3.188-.002.86 0 1.992 0 3.51 0 4.506.005 5.824.026 6.08.075.9.216 1.467.514 2.086a4.54 4.54 0 0 0 2.94 2.41c.443.114.934.177 1.563.207.267.012 2.984.02 5.704.02 2.72 0 5.439-.003 5.699-.016.728-.035 1.152-.092 1.62-.213a4.511 4.511 0 0 0 2.94-2.414c.292-.605.44-1.193.507-2.047.014-.186.02-3.153.02-6.116 0-2.963-.006-5.925-.02-6.111-.069-.867-.217-1.45-.519-2.067a4.28 4.28 0 0 0-.921-1.267C28.4 7.865 27.53 7.45 26.492 7.3c-.503-.073-.603-.095-3.177-.099h-3.504z"/>
        <path fill="#FFF" fill-rule="nonzero" d="M19.806 10.025c-2.16 0-2.43.01-3.278.048-.846.039-1.424.173-1.93.37a3.891 3.891 0 0 0-1.408.92 3.916 3.916 0 0 0-.917 1.413c-.197.507-.332 1.087-.37 1.935-.038.851-.047 1.123-.047 3.289 0 2.166.01 2.437.048 3.288.038.849.172 1.428.369 1.935.203.525.475.97.917 1.413.441.444.885.717 1.407.92.506.198 1.084.332 1.93.371.848.039 1.119.048 3.278.048s2.43-.01 3.277-.048c.846-.039 1.425-.173 1.93-.37a3.888 3.888 0 0 0 1.408-.92c.442-.444.714-.89.917-1.413.196-.508.33-1.087.37-1.936.038-.85.048-1.122.048-3.288 0-2.166-.01-2.438-.048-3.289-.04-.849-.174-1.428-.37-1.935a3.916 3.916 0 0 0-.917-1.413 3.884 3.884 0 0 0-1.408-.92c-.507-.197-1.085-.331-1.931-.37-.848-.039-1.118-.048-3.278-.048h.003zm-.713 1.437h.713c2.122 0 2.374.007 3.212.046.775.035 1.196.165 1.476.274.371.145.636.318.914.597.278.279.45.545.595.917.108.28.238.703.273 1.48.038.841.047 1.094.047 3.222 0 2.129-.009 2.381-.047 3.222-.035.777-.165 1.2-.273 1.48a2.467 2.467 0 0 1-.595.916c-.279.28-.543.452-.914.597-.28.11-.7.24-1.476.275-.838.038-1.09.046-3.212.046-2.123 0-2.374-.008-3.212-.046-.776-.036-1.196-.166-1.477-.275a2.462 2.462 0 0 1-.914-.597 2.473 2.473 0 0 1-.595-.916c-.109-.281-.238-.703-.274-1.48-.038-.842-.045-1.094-.045-3.224s.007-2.38.045-3.222c.036-.777.165-1.2.274-1.48.144-.372.317-.638.595-.917.278-.28.543-.452.914-.597.28-.11.701-.24 1.477-.275.733-.034 1.017-.043 2.499-.045v.002zm4.956 1.324a.955.955 0 0 0-.954.957c0 .528.428.957.954.957a.956.956 0 0 0 .954-.957.956.956 0 0 0-.954-.957zm-4.243 1.118A4.09 4.09 0 0 0 15.723 18a4.089 4.089 0 0 0 4.083 4.095A4.088 4.088 0 0 0 23.888 18a4.089 4.089 0 0 0-4.082-4.096zm0 1.438c1.463 0 2.65 1.19 2.65 2.658a2.654 2.654 0 0 1-2.65 2.658A2.654 2.654 0 0 1 17.156 18a2.654 2.654 0 0 1 2.65-2.658z"/>
    </g>
</svg>
